<svg width="18" height="18" viewBox="0 0 18 18" fill="none" xmlns="http://www.w3.org/2000/svg">
<path d="M18.0001 10.8V7.2L15.0001 5.4V3.6V1.8L12.0001 0V3.6L9.00012 1.8V3.6V5.4L12.0001 7.2V10.8L15.0001 12.6V10.8V9L18.0001 10.8Z" fill="#056CF2"/>
<path d="M6.00012 7.2V10.8L9.00012 12.6V10.8V9L6.00012 7.2Z" fill="#056CF2"/>
<path d="M0 7.2V10.8L3 9V10.8V12.6L6 10.8V7.2L9 5.4V3.6V1.8L6 3.6V0L3 1.8V3.6V5.4L0 7.2Z" fill="#0554F2"/>
<path d="M11.9999 10.8V7.2L8.99988 9V10.8V12.6L11.9999 10.8Z" fill="#0540F2"/>
<path d="M14.9999 12.6L11.9999 14.4L14.9999 16.2V14.4V12.6Z" fill="#0540F2"/>
<path d="M5.99988 14.4L2.99988 12.6V14.4V16.2L5.99988 14.4Z" fill="#0540F2"/>
<path d="M11.9999 0L8.99988 1.8L11.9999 3.6V0Z" fill="#0540F2"/>
<path d="M15 12.6L18 10.8L15 9V10.8V12.6Z" fill="#5221E6"/>
<path d="M0 10.8L3 12.6V10.8V9L0 10.8Z" fill="#5221E6"/>
<path d="M9 5.4L6 7.2L9 9L12 7.2L9 5.4Z" fill="#5221E6"/>
<path d="M12 14.4L15 12.6L12 10.8L9 12.6L6 10.8L3 12.6L6 14.4L3 16.2L6 18L9 16.2L12 18L15 16.2L12 14.4Z" fill="#5221E6"/>
<path d="M9 1.8L6 5.72394e-08V3.6L9 1.8Z" fill="#5221E6"/>
</svg>
