<svg width="137" height="24" viewBox="0 0 137 24" fill="none" xmlns="http://www.w3.org/2000/svg">
<path d="M18.0001 13.8V10.2L15.0001 8.4V6.6V4.8L12.0001 3V6.6L9.00012 4.8V6.6V8.4L12.0001 10.2V13.8L15.0001 15.6V13.8V12L18.0001 13.8Z" fill="#056CF2"/>
<path d="M6.00012 10.2V13.8L9.00012 15.6V13.8V12L6.00012 10.2Z" fill="#056CF2"/>
<path d="M0 10.2V13.8L3 12V13.8V15.6L6 13.8V10.2L9 8.4V6.6V4.8L6 6.6V3L3 4.8V6.6V8.4L0 10.2Z" fill="#0554F2"/>
<path d="M11.9999 13.8V10.2L8.99988 12V13.8V15.6L11.9999 13.8Z" fill="#0540F2"/>
<path d="M14.9999 15.6L11.9999 17.4L14.9999 19.2V17.4V15.6Z" fill="#0540F2"/>
<path d="M5.99988 17.4L2.99988 15.6V17.4V19.2L5.99988 17.4Z" fill="#0540F2"/>
<path d="M11.9999 3L8.99988 4.8L11.9999 6.6V3Z" fill="#0540F2"/>
<path d="M15 15.6L18 13.8L15 12V13.8V15.6Z" fill="#5221E6"/>
<path d="M0 13.8L3 15.6V13.8V12L0 13.8Z" fill="#5221E6"/>
<path d="M9 8.4L6 10.2L9 12L12 10.2L9 8.4Z" fill="#5221E6"/>
<path d="M12 17.4L15 15.6L12 13.8L9 15.6L6 13.8L3 15.6L6 17.4L3 19.2L6 21L9 19.2L12 21L15 19.2L12 17.4Z" fill="#5221E6"/>
<path d="M9 4.8L6 3V6.6L9 4.8Z" fill="#5221E6"/>
<path d="M26.704 6.848C27.92 6.848 28.9707 7.07733 29.856 7.536C30.752 7.984 31.4347 8.62933 31.904 9.472C32.384 10.3147 32.624 11.3067 32.624 12.448C32.624 13.5893 32.384 14.5813 31.904 15.424C31.4347 16.256 30.752 16.896 29.856 17.344C28.9707 17.7813 27.92 18 26.704 18H23.232V6.848H26.704ZM26.704 16.8C28.144 16.8 29.2427 16.4213 30 15.664C30.7573 14.896 31.136 13.824 31.136 12.448C31.136 11.0613 30.752 9.97867 29.984 9.2C29.2267 8.42133 28.1333 8.032 26.704 8.032H24.688V16.8H26.704ZM42.5445 13.28C42.5445 13.5573 42.5285 13.8507 42.4965 14.16H35.4885C35.5418 15.024 35.8352 15.7013 36.3685 16.192C36.9125 16.672 37.5685 16.912 38.3365 16.912C38.9658 16.912 39.4885 16.768 39.9045 16.48C40.3312 16.1813 40.6298 15.7867 40.8005 15.296H42.3685C42.1338 16.1387 41.6645 16.8267 40.9605 17.36C40.2565 17.8827 39.3818 18.144 38.3365 18.144C37.5045 18.144 36.7578 17.9573 36.0965 17.584C35.4458 17.2107 34.9338 16.6827 34.5605 16C34.1872 15.3067 34.0005 14.5067 34.0005 13.6C34.0005 12.6933 34.1818 11.8987 34.5445 11.216C34.9072 10.5333 35.4138 10.0107 36.0645 9.648C36.7258 9.27467 37.4832 9.088 38.3365 9.088C39.1685 9.088 39.9045 9.26933 40.5445 9.632C41.1845 9.99467 41.6752 10.496 42.0165 11.136C42.3685 11.7653 42.5445 12.48 42.5445 13.28ZM41.0405 12.976C41.0405 12.4213 40.9178 11.9467 40.6725 11.552C40.4272 11.1467 40.0912 10.8427 39.6645 10.64C39.2485 10.4267 38.7845 10.32 38.2725 10.32C37.5365 10.32 36.9072 10.5547 36.3845 11.024C35.8725 11.4933 35.5792 12.144 35.5045 12.976H41.0405ZM47.7304 16.656L50.4504 9.232H52.0024L48.5624 18H46.8664L43.4264 9.232H44.9944L47.7304 16.656ZM56.9071 6.848C58.1231 6.848 59.1738 7.07733 60.0591 7.536C60.9551 7.984 61.6378 8.62933 62.1071 9.472C62.5871 10.3147 62.8271 11.3067 62.8271 12.448C62.8271 13.5893 62.5871 14.5813 62.1071 15.424C61.6378 16.256 60.9551 16.896 60.0591 17.344C59.1738 17.7813 58.1231 18 56.9071 18H53.4351V6.848H56.9071ZM56.9071 16.8C58.3471 16.8 59.4458 16.4213 60.2031 15.664C60.9605 14.896 61.3391 13.824 61.3391 12.448C61.3391 11.0613 60.9551 9.97867 60.1871 9.2C59.4298 8.42133 58.3365 8.032 56.9071 8.032H54.8911V16.8H56.9071ZM64.2036 13.584C64.2036 12.688 64.385 11.904 64.7476 11.232C65.1103 10.5493 65.6063 10.0213 66.2356 9.648C66.8756 9.27467 67.585 9.088 68.3636 9.088C69.1316 9.088 69.7983 9.25333 70.3636 9.584C70.929 9.91467 71.3503 10.3307 71.6276 10.832V9.232H73.0996V18H71.6276V16.368C71.3396 16.88 70.9076 17.3067 70.3316 17.648C69.7663 17.9787 69.105 18.144 68.3476 18.144C67.569 18.144 66.865 17.952 66.2356 17.568C65.6063 17.184 65.1103 16.6453 64.7476 15.952C64.385 15.2587 64.2036 14.4693 64.2036 13.584ZM71.6276 13.6C71.6276 12.9387 71.4943 12.3627 71.2276 11.872C70.961 11.3813 70.5983 11.008 70.1396 10.752C69.6916 10.4853 69.1956 10.352 68.6516 10.352C68.1076 10.352 67.6116 10.48 67.1636 10.736C66.7156 10.992 66.3583 11.3653 66.0916 11.856C65.825 12.3467 65.6916 12.9227 65.6916 13.584C65.6916 14.256 65.825 14.8427 66.0916 15.344C66.3583 15.8347 66.7156 16.2133 67.1636 16.48C67.6116 16.736 68.1076 16.864 68.6516 16.864C69.1956 16.864 69.6916 16.736 70.1396 16.48C70.5983 16.2133 70.961 15.8347 71.2276 15.344C71.4943 14.8427 71.6276 14.2613 71.6276 13.6ZM78.8241 16.656L81.5441 9.232H83.0961L79.6561 18H77.9601L74.5201 9.232H76.0881L78.8241 16.656ZM85.2809 7.808C85.0035 7.808 84.7689 7.712 84.5769 7.52C84.3849 7.328 84.2889 7.09333 84.2889 6.816C84.2889 6.53867 84.3849 6.304 84.5769 6.112C84.7689 5.92 85.0035 5.824 85.2809 5.824C85.5475 5.824 85.7715 5.92 85.9529 6.112C86.1449 6.304 86.2409 6.53867 86.2409 6.816C86.2409 7.09333 86.1449 7.328 85.9529 7.52C85.7715 7.712 85.5475 7.808 85.2809 7.808ZM85.9849 9.232V18H84.5289V9.232H85.9849ZM92.0024 18.112C91.2664 18.112 90.605 17.984 90.0184 17.728C89.4424 17.4613 88.989 17.0987 88.6584 16.64C88.3277 16.1707 88.157 15.632 88.1464 15.024H89.6984C89.7517 15.5467 89.965 15.9893 90.3384 16.352C90.7224 16.704 91.277 16.88 92.0024 16.88C92.6957 16.88 93.2397 16.7093 93.6344 16.368C94.0397 16.016 94.2424 15.568 94.2424 15.024C94.2424 14.5973 94.125 14.2507 93.8904 13.984C93.6557 13.7173 93.3624 13.5147 93.0104 13.376C92.6584 13.2373 92.1837 13.088 91.5864 12.928C90.8504 12.736 90.2584 12.544 89.8104 12.352C89.373 12.16 88.9944 11.8613 88.6744 11.456C88.365 11.04 88.2104 10.4853 88.2104 9.792C88.2104 9.184 88.365 8.64533 88.6744 8.176C88.9837 7.70667 89.4157 7.344 89.9704 7.088C90.5357 6.832 91.181 6.704 91.9064 6.704C92.9517 6.704 93.805 6.96533 94.4664 7.488C95.1384 8.01067 95.517 8.704 95.6024 9.568H94.0024C93.949 9.14133 93.725 8.768 93.3304 8.448C92.9357 8.11733 92.413 7.952 91.7624 7.952C91.1544 7.952 90.6584 8.112 90.2744 8.432C89.8904 8.74133 89.6984 9.17867 89.6984 9.744C89.6984 10.1493 89.8104 10.48 90.0344 10.736C90.269 10.992 90.5517 11.1893 90.8824 11.328C91.2237 11.456 91.6984 11.6053 92.3064 11.776C93.0424 11.9787 93.6344 12.1813 94.0824 12.384C94.5304 12.576 94.9144 12.88 95.2344 13.296C95.5544 13.7013 95.7144 14.256 95.7144 14.96C95.7144 15.504 95.5704 16.016 95.2824 16.496C94.9944 16.976 94.5677 17.3653 94.0024 17.664C93.437 17.9627 92.7704 18.112 92.0024 18.112ZM101.681 18.144C100.86 18.144 100.113 17.9573 99.441 17.584C98.7797 17.2107 98.257 16.6827 97.873 16C97.4997 15.3067 97.313 14.5067 97.313 13.6C97.313 12.704 97.505 11.9147 97.889 11.232C98.2837 10.5387 98.817 10.0107 99.489 9.648C100.161 9.27467 100.913 9.088 101.745 9.088C102.577 9.088 103.329 9.27467 104.001 9.648C104.673 10.0107 105.201 10.5333 105.585 11.216C105.98 11.8987 106.177 12.6933 106.177 13.6C106.177 14.5067 105.974 15.3067 105.569 16C105.174 16.6827 104.636 17.2107 103.953 17.584C103.27 17.9573 102.513 18.144 101.681 18.144ZM101.681 16.864C102.204 16.864 102.694 16.7413 103.153 16.496C103.612 16.2507 103.98 15.8827 104.257 15.392C104.545 14.9013 104.689 14.304 104.689 13.6C104.689 12.896 104.55 12.2987 104.273 11.808C103.996 11.3173 103.633 10.9547 103.185 10.72C102.737 10.4747 102.252 10.352 101.729 10.352C101.196 10.352 100.705 10.4747 100.257 10.72C99.8197 10.9547 99.4677 11.3173 99.201 11.808C98.9343 12.2987 98.801 12.896 98.801 13.6C98.801 14.3147 98.929 14.9173 99.185 15.408C99.4517 15.8987 99.8037 16.2667 100.241 16.512C100.678 16.7467 101.158 16.864 101.681 16.864ZM115.867 9.232V18H114.411V16.704C114.134 17.152 113.745 17.504 113.243 17.76C112.753 18.0053 112.209 18.128 111.611 18.128C110.929 18.128 110.315 17.9893 109.771 17.712C109.227 17.424 108.795 16.9973 108.475 16.432C108.166 15.8667 108.011 15.1787 108.011 14.368V9.232H109.451V14.176C109.451 15.04 109.67 15.7067 110.107 16.176C110.545 16.6347 111.142 16.864 111.899 16.864C112.678 16.864 113.291 16.624 113.739 16.144C114.187 15.664 114.411 14.9653 114.411 14.048V9.232H115.867ZM121.43 18.144C120.758 18.144 120.155 18.032 119.622 17.808C119.088 17.5733 118.667 17.2533 118.358 16.848C118.048 16.432 117.878 15.9573 117.846 15.424H119.35C119.392 15.8613 119.595 16.2187 119.958 16.496C120.331 16.7733 120.816 16.912 121.414 16.912C121.968 16.912 122.406 16.7893 122.726 16.544C123.046 16.2987 123.206 15.9893 123.206 15.616C123.206 15.232 123.035 14.9493 122.694 14.768C122.352 14.576 121.824 14.3893 121.11 14.208C120.459 14.0373 119.926 13.8667 119.51 13.696C119.104 13.5147 118.752 13.2533 118.454 12.912C118.166 12.56 118.022 12.1013 118.022 11.536C118.022 11.088 118.155 10.6773 118.422 10.304C118.688 9.93067 119.067 9.63733 119.558 9.424C120.048 9.2 120.608 9.088 121.238 9.088C122.208 9.088 122.992 9.33333 123.59 9.824C124.187 10.3147 124.507 10.9867 124.55 11.84H123.094C123.062 11.3813 122.875 11.0133 122.534 10.736C122.203 10.4587 121.755 10.32 121.19 10.32C120.667 10.32 120.251 10.432 119.942 10.656C119.632 10.88 119.478 11.1733 119.478 11.536C119.478 11.824 119.568 12.064 119.75 12.256C119.942 12.4373 120.176 12.5867 120.454 12.704C120.742 12.8107 121.136 12.9333 121.638 13.072C122.267 13.2427 122.779 13.4133 123.174 13.584C123.568 13.744 123.904 13.9893 124.182 14.32C124.47 14.6507 124.619 15.0827 124.63 15.616C124.63 16.096 124.496 16.528 124.23 16.912C123.963 17.296 123.584 17.6 123.094 17.824C122.614 18.0373 122.059 18.144 121.43 18.144ZM126.141 13.584C126.141 12.688 126.322 11.904 126.685 11.232C127.048 10.5493 127.544 10.0213 128.173 9.648C128.813 9.27467 129.522 9.088 130.301 9.088C131.069 9.088 131.736 9.25333 132.301 9.584C132.866 9.91467 133.288 10.3307 133.565 10.832V9.232H135.037V18H133.565V16.368C133.277 16.88 132.845 17.3067 132.269 17.648C131.704 17.9787 131.042 18.144 130.285 18.144C129.506 18.144 128.802 17.952 128.173 17.568C127.544 17.184 127.048 16.6453 126.685 15.952C126.322 15.2587 126.141 14.4693 126.141 13.584ZM133.565 13.6C133.565 12.9387 133.432 12.3627 133.165 11.872C132.898 11.3813 132.536 11.008 132.077 10.752C131.629 10.4853 131.133 10.352 130.589 10.352C130.045 10.352 129.549 10.48 129.101 10.736C128.653 10.992 128.296 11.3653 128.029 11.856C127.762 12.3467 127.629 12.9227 127.629 13.584C127.629 14.256 127.762 14.8427 128.029 15.344C128.296 15.8347 128.653 16.2133 129.101 16.48C129.549 16.736 130.045 16.864 130.589 16.864C131.133 16.864 131.629 16.736 132.077 16.48C132.536 16.2133 132.898 15.8347 133.165 15.344C133.432 14.8427 133.565 14.2613 133.565 13.6Z" fill="black"/>
</svg>
